<svg width="32" height="32" viewBox="0 0 32 32" fill="none" xmlns="http://www.w3.org/2000/svg">
  <rect width="32" height="32" rx="8" fill="url(#paint0_linear)" />
  <path d="M12 9H17V11H15V17C15 17.667 14.833 18.25 14.5 18.75C14.167 19.25 13.75 19.625 13.25 19.875C12.75 20.125 12.167 20.25 11.5 20.25C10.833 20.25 10.25 20.125 9.75 19.875C9.25 19.625 8.833 19.25 8.5 18.75L10 17.5C10.167 17.833 10.375 18.083 10.625 18.25C10.875 18.417 11.167 18.5 11.5 18.5C11.833 18.5 12.125 18.417 12.375 18.25C12.625 18.083 12.833 17.833 13 17.5V11H12V9ZM18 9H20.5L23 20H20.5L19.75 16.5H18.75L18 9ZM24 9H26.5L25.75 16.5H24.75L24 9ZM19.5 20L21.75 14L24 20H19.5Z" fill="white"/>
  <defs>
    <linearGradient id="paint0_linear" x1="0" y1="0" x2="32" y2="32" gradientUnits="userSpaceOnUse">
      <stop stop-color="#3B82F6" />
      <stop offset="1" stop-color="#A855F7" />
    </linearGradient>
  </defs>
</svg>