<svg width="32" height="32" viewBox="0 0 32 32" fill="none" xmlns="http://www.w3.org/2000/svg">
  <defs>
    <linearGradient id="g" x1="0" y1="0" x2="32" y2="32" gradientUnits="userSpaceOnUse">
      <stop stop-color="#6366F1"/>
      <stop offset="1" stop-color="#A855F7"/>
    </linearGradient>
  </defs>
  <rect width="32" height="32" rx="8" fill="url(#g)"/>
  <!-- J: clean vertical stroke with curved bottom -->
  <path d="M9.5 8.5h3v9c0 1.8-.6 3.1-1.7 3.9-1 .7-2.1 1.1-3.3 1.1-.8 0-1.5-.2-2-.5l.8-2.2c.3.2.7.3 1.1.3.9 0 1.6-.5 1.6-1.6V10.5h-1.5V8.5z" fill="white" fill-opacity=".92"/>
  <!-- V: clean angled strokes -->
  <path d="M16.5 8.5h2.8l3.2 11.5h.1L25.8 8.5h2.7l-4.6 15h-2.8l-4.6-15z" fill="white" fill-opacity=".7"/>
</svg>