<svg xmlns="http://www.w3.org/2000/svg" viewBox="0 0 512 512">
  <title>CSS3 Logo</title>
  <path fill="#264de4" d="M71.357 460.819L30.272 0h451.456l-41.129 460.746L255.724 512z"/>
  <path fill="#2965f1" d="M405.388 431.408l35.148-393.73H256v435.146z"/>
  <path fill="#ebebeb" d="M124.46 208.59l5.065 56.517H256V208.59zm-12.651-140.75h144.19v55.732H117.867zM142.5 346.38l7.634 85.006 105.77 29.316v-65.967l-103.179-28.684z"/>
  <path fill="#fff" d="M340.947 317.121l-8.504 95.217-76.538 20.654v71.476l140.444-38.942.524-5.817 16.082-180.153 1.671-18.302 12.442-139.192H255.995v55.725h75.563l-5.061 58.479h-70.502v56.517h67.5z"/>
</svg> 