<svg xmlns="http://www.w3.org/2000/svg" viewBox="0 0 512 512">
  <title>HTML5 Logo</title>
  <path d="M108.4 0h23v22.8h21.2V0h23v69h-23V46h-21.1v23h-23.1V0z"/>
  <path d="M206 22.9h-20.3V0h63.7v22.9h-20.3V69H206V23z"/>
  <path d="M259.5 0h24.1l14.8 24.3L313.2 0h24.1v69h-23V34.8l-16.1 24.8-16.1-24.8V69h-22.6V0z"/>
  <path d="M348.7 0h23v46.2h32.6V69h-55.6V0z"/>
  <path fill="#e44d26" d="M107.6 471l-33-370.4h362.8l-33 370.2L255.7 512z"/>
  <path fill="#f16529" d="M256 480.5V131h148.3L376 447z"/>
  <path fill="#ebebeb" d="M142 176.3h114v45.4h-64.2l4.2 46.5h60v45.3H154.4z"/>
  <path fill="#ebebeb" d="M156.4 336.3H202l3.2 36.3 50.8 13.6v47.4l-93.2-26z"/>
  <path fill="#fff" d="M369.6 176.3H255.8v45.4h109.6z"/>
  <path fill="#fff" d="M255.8 268.2h56l-5.3 59-50.7 13.6v47.2l93-25.8 12.6-142H256z"/>
</svg> 