<svg xmlns="http://www.w3.org/2000/svg" viewBox="0 0 512 512">
  <title>React Logo</title>
  <path fill="#61dafb" d="M418.2 177.2c-5.4-1.8-10.8-3.5-16.2-5.1.9-3.7 1.7-7.4 2.5-11.1 12.3-59.6 4.2-107.5-23.1-123.3-26.3-15.1-69.2.6-112.6 38.4-4.3 3.7-8.5 7.6-12.5 11.5-2.7-2.6-5.5-5.2-8.3-7.7-45.5-40.4-91.1-57.4-118.4-41.5-26.2 15.2-34 60.3-23 116.7 1.1 5.6 2.3 11.1 3.7 16.7-6.4 1.8-12.7 3.8-18.6 5.9C38.3 196.2 0 225.4 0 255.6c0 31.1 40.2 61.3 101.6 79.4 4.9 1.5 10 2.8 15.2 4.1-1.4 5.7-2.7 11.4-3.8 17.3-11.3 56.2-2.5 99 23.8 114.2 27.1 15.6 72.4-.4 116.6-39.1 3.5-3.1 7-6.3 10.5-9.7 4.4 4.3 9 8.4 13.6 12.4 42.8 36.8 85.1 51.7 111.3 36.6 27-15.6 35.8-62.9 24.4-120.5-.9-4.4-1.9-8.9-3-13.5 3.2-.9 6.3-1.9 9.4-2.9 57.7-19.1 99.5-50 99.5-81.7 0-30.3-39.4-59.7-93.8-78.4zM282.9 92.3c37.2-32.4 71.9-45.1 87.7-36 16.9 9.7 23.4 48.9 12.8 100.4-.7 3.4-1.4 6.7-2.3 10-22.2-5-44.7-8.6-67.3-10.6-13-18.6-27.2-36.4-42.6-53.1 3.9-3.7 7.7-7.2 11.7-10.7zM167.2 307.5c5.1 8.7 10.3 17.4 15.8 25.9-15.6-1.7-31.1-4.2-46.4-7.5 4.4-14.4 9.9-29.3 16.3-44.5 4.6 8.8 9.3 17.5 14.3 26.1zm-30.3-120.3c14.4-3.2 29.7-5.8 45.6-7.8-5.3 8.3-10.5 16.8-15.4 25.4-4.9 8.5-9.7 17.2-14.2 26-6.3-14.9-11.6-29.5-16-43.6zm27.4 68.9c6.6-13.8 13.8-27.3 21.4-40.6s15.8-26.2 24.4-38.9c15-1.1 30.3-1.7 45.9-1.7s31 .6 45.9 1.7c8.5 12.6 16.6 25.5 24.3 38.7s14.9 26.7 21.7 40.4c-6.7 13.8-13.9 27.4-21.6 40.8-7.6 13.3-15.7 26.2-24.2 39-14.9 1.1-30.4 1.6-46.1 1.6s-30.9-.5-45.6-1.4c-8.7-12.7-16.9-25.7-24.6-39s-14.8-26.8-21.5-40.6zm180.6 51.2c5.1-8.8 9.9-17.7 14.6-26.7 6.4 14.5 12 29.2 16.9 44.3-15.5 3.5-31.2 6.2-47 8 5.4-8.4 10.5-17 15.5-25.6zm14.4-76.5c-4.7-8.8-9.5-17.6-14.5-26.2-4.9-8.5-10-16.9-15.3-25.2 16.1 2 31.5 4.7 45.9 8-4.6 14.8-10 29.2-16.1 43.4zM256.2 118.3c10.5 11.4 20.4 23.4 29.6 35.8-19.8-.9-39.7-.9-59.5 0 9.8-12.9 19.9-24.9 29.9-35.8zM140.2 57c16.8-9.8 54.1 4.2 93.4 39 2.5 2.2 5 4.6 7.6 7-15.5 16.7-29.8 34.5-42.9 53.1-22.6 2-45 5.6-67.2 10.6-1.9-7.8-3.5-15.8-4.7-24.1 9.7-49.3 28.2-86.7 43.8-95.6zm-83.2 199.2c-6.4 1.7-12.7 3.6-18.8 5.6-20.8 7.2-35.6 16.6-35.6 24.1 0 8.2 16.6 18.7 40.1 26.4 5.2 1.6 10.5 3.1 16 4.4-2.7 8.5-5.1 17.1-7.1 25.9-7.9 33.7-8.9 61.1-2.6 70.3 6.5 9.5 23.1 13.2 48.3 6.2 15.5-4.3 33.5-12.4 52.5-24.2 7.5 5.7 15.3 11 23.5 15.8-21 19.2-42.9 33.8-65.1 42.3-57.4 21.9-95.9 7.8-108.7-13.5-12.9-21.6-8.3-61.8 9-109 3.2-8.8 6.7-17.7 10.5-26.7 5.8 1.1 11.6 2.2 17.5 3.1zm163 30c12.8 3.4 25.8 6.1 38.9 8.2-5.8 19.4-13.3 39.2-22.2 59.1-7.9-7.3-15.9-14.9-24.2-22.9 3-14.6 5.3-29.5 7.5-44.4zm109.6-23.3c16.9 46.9 20.7 86.2 8.2 107.2-12.6 21-44.5 34.7-102.6 13-12.8-4.8-26.1-11.1-39.7-18.8 18.5-19.5 35.3-42.2 50.1-67.6 32-4.7 63-12.5 90.7-23.8 8.3 3.6-2.4 4.8 5.3 3 .8-.2 5.7-2.3 5.7-2.3 0 6.8 1.3 6.5-3.1 6.8-8.8.6-16.9-1.9-25-3.7-8.1 2.5-16.3 4.6-24.7 6.6.5-1.3 1-2.6 1.5-3.9 13.3-35 26.1-77.2 31.3-97.8 11.1 4.2 20.5 9.1 28.2 14.5 13.4 9.4 21.1 18.7 24.1 26.8zm-5-17c-6.6-4.7-14.8-8.9-24.1-12.8 4.9-15.8 8.4-29.2 10.4-40.4 2-11.2 2.2-19.8 1.8-25.8-.4-6.1-1.8-10.8-3.8-13.8-6.6-9.6-21.3-14.5-44.3-14.4-23 .1-52.5 4.7-85.6 13.9-3.4.9-6.9 1.9-10.4 2.9-28.9 8.3-59.2 19.3-90 33.1l-6.1 2.8c-10.4 4.9-20.2 9.8-29.4 14.8-2.5 1.4-4.9 2.7-7.2 4-7.1 4.1-13.7 8.1-19.7 12.1-24.3 16-35.8 29.5-32.7 38.5 2.3 6.8 13.1 13.5 32.8 19.4 3.7 1.1 7.7 2.2 12 3.2-3.7 12.8-6.6 25.2-8.4 36.9-2.9 17.4-2.6 32.5.1 44.8 2.6 12.3 7.6 21.3 15.2 26.3 7.6 5 17.7 5.9 30.1 3.7 12.4-2.1 26.9-7.2 42.7-15.3 15.8-8.1 33-19.1 50.8-33 4.7 3.5 9.6 6.9 14.8 10.1-18.5 14.8-37.3 27-55.8 36.3-18.4 9.3-36.5 15.6-52.5 18.1-16 2.5-30.2.8-40.3-5.3-10.2-6.1-16.9-16.6-20.1-31.8-3.2-15.3-3.3-33.8 0-55.2 1.4-9.2 3.4-18.8 6.1-28.8 1.4.3 2.8.6 4.2.9 3.1.7 6.3 1.3 9.6 1.9-2.4 9.4-4.2 18.5-5.5 27.2-3 19.4-2.9 35.3 0 46.9 1.3 5.3 3.2 9.8 5.5 13.2h.1c5.9 8.7 18.7 9.7 37.5.3 37.5-18.8 83.7-58.1 125.4-107.1 5.2-6.1 10.4-12.4 15.6-18.9 1.4-1.7 2.7-3.4 4.1-5.1 20.8-26 39.6-53.9 55.2-82.8 4.3-8 8.3-16.2 12-24.3 5.2-11.5 9.5-22.8 12.9-33.7 4.4-1.1 8.5-2.3 12.2-3.5 8.9-2.8 15.9-5.7 20.7-8.6 4.9-2.9 7.5-5.7 8.1-8.2 1.3-5.8-6.1-14.2-23.3-24.3-12.5-7.3-29.5-14.5-49.9-21.1 3.9-11.9 6.3-22.9 7.1-32.6.8-9.7.4-18.3-1.2-25.5-1.6-7.2-4.4-12.9-8.3-16.8-3.9-3.9-8.9-6-14.9-6.5-10.7-.9-24.9 1.5-41.5 7.4-16.6 5.9-35.5 14.6-55.6 26-3.8 2.2-7.7 4.4-11.6 6.8-15.3-5.4-31.1-10-47.1-13.8-27.2-6.3-54.7-10.2-81.4-11.5-26.7-1.3-52.4.2-76.1 4.3-23.6 4.1-44.2 10.8-60.9 20.1-13.1 7.3-23.2 16.1-29.7 26.1-6.5 10-8.9 20.9-7.1 32.1 1.7 11.2 7.8 22.5 18 33.5 10.2 11 24.1 21.9 41.4 32.2 17.3 10.3 38.2 19.8 62.1 28.4 3.1 1.1 6.2 2.2 9.4 3.2-.6 1.2-1.2 2.4-1.8 3.7-8.5 17.5-15.5 34.9-21 52-1.6 5.1-3.1 10.2-4.5 15.3-14.2-4.7-27.5-9.8-39.7-15.1C81.4 263 58.9 248.2 42.4 232.8c-16.5-15.4-28.1-31.2-33.7-46.7-5.6-15.4-4.4-30.5 3.9-44.5 8.3-14 23.5-26.9 45.6-38.4 22.2-11.5 49.8-21.8 82.3-30.2 32.5-8.4 69-14.6 108.6-17.9C287.8 51.5 328.8 50 368.5 52c39.7 2 77.7 7.4 112.2 16.6 34.5 9.2 63.2 21.9 83.5 37.8 20.3 15.9 31.2 34.5 31.2 54.9 0 14.6-4.9 29.1-14.6 43.6-9.7 14.5-24 28.4-42.6 41.6-18.5 13.2-41.5 25.5-67.9 36.9-26.4 11.4-55.9 21.4-88.1 30-3.6 1-7.2 1.9-10.8 2.8-16.4 4.1-32.5 7.5-48.2 10.3-6.9 13.1-14.4 25.9-22.6 38.2-13.7 20.6-28.8 40.1-45.2 58.1z"/>
</svg> 